<svg width="50" height="47" viewBox="0 0 50 47" fill="none" xmlns="http://www.w3.org/2000/svg">
<g filter="url(#filter0_di_105_4)">
<path d="M39.5 21C39.5 29.3192 31.9193 36.5 22 36.5C12.0807 36.5 4.5 29.3192 4.5 21C4.5 12.6808 12.0807 5.5 22 5.5C31.9193 5.5 39.5 12.6808 39.5 21Z" stroke="white" stroke-width="5" shape-rendering="crispEdges"/>
</g>
<g filter="url(#filter1_di_105_4)">
<path d="M39.68 12L37.32 18.8C37 19.68 36.68 20.4 36.36 21.04C36.04 21.68 35.6 22.24 35.12 22.64C34.64 23.08 34.04 23.4 33.36 23.64C32.64 23.88 31.8 24 30.8 24H30.4L34.64 30H25.08L19.2 21.84L20.48 18.2H28.6C28.96 18.2 29.24 17.96 29.4 17.48L30.28 14.92C30.32 14.8 30.32 14.64 30.24 14.48C30.16 14.32 30.08 14.2 29.96 14.2H19.92L14.48 30C14.4 30.16 14.12 30.36 13.68 30.68C13.2 31 12.64 31.36 12 31.76C11.36 32.16 10.64 32.56 9.84 32.96C9.04 33.4 8.28 33.8 7.56 34.12C6.84 34.48 6.16 34.76 5.56 35C4.96 35.24 4.52 35.32 4.24 35.32L13.64 8H37.88C38.2 8 38.52 8.16 38.8 8.44C39.08 8.72 39.32 9.08 39.48 9.48C39.64 9.88 39.72 10.32 39.76 10.8C39.8 11.28 39.76 11.68 39.68 12Z" fill="#3B82F6"/>
</g>
<defs>
<filter id="filter0_di_105_4" x="2" y="3" width="48" height="44" filterUnits="userSpaceOnUse" color-interpolation-filters="sRGB">
<feFlood flood-opacity="0" result="BackgroundImageFix"/>
<feColorMatrix in="SourceAlpha" type="matrix" values="0 0 0 0 0 0 0 0 0 0 0 0 0 0 0 0 0 0 127 0" result="hardAlpha"/>
<feOffset dx="4" dy="4"/>
<feGaussianBlur stdDeviation="2"/>
<feComposite in2="hardAlpha" operator="out"/>
<feColorMatrix type="matrix" values="0 0 0 0 0 0 0 0 0 0 0 0 0 0 0 0 0 0 0.25 0"/>
<feBlend mode="normal" in2="BackgroundImageFix" result="effect1_dropShadow_105_4"/>
<feBlend mode="normal" in="SourceGraphic" in2="effect1_dropShadow_105_4" result="shape"/>
<feColorMatrix in="SourceAlpha" type="matrix" values="0 0 0 0 0 0 0 0 0 0 0 0 0 0 0 0 0 0 127 0" result="hardAlpha"/>
<feMorphology radius="2" operator="erode" in="SourceAlpha" result="effect2_innerShadow_105_4"/>
<feOffset dy="4"/>
<feGaussianBlur stdDeviation="2"/>
<feComposite in2="hardAlpha" operator="arithmetic" k2="-1" k3="1"/>
<feColorMatrix type="matrix" values="0 0 0 0 0 0 0 0 0 0 0 0 0 0 0 0 0 0 0.25 0"/>
<feBlend mode="normal" in2="shape" result="effect2_innerShadow_105_4"/>
</filter>
<filter id="filter1_di_105_4" x="0.23999" y="8" width="43.56" height="35.32" filterUnits="userSpaceOnUse" color-interpolation-filters="sRGB">
<feFlood flood-opacity="0" result="BackgroundImageFix"/>
<feColorMatrix in="SourceAlpha" type="matrix" values="0 0 0 0 0 0 0 0 0 0 0 0 0 0 0 0 0 0 127 0" result="hardAlpha"/>
<feOffset dy="4"/>
<feGaussianBlur stdDeviation="2"/>
<feComposite in2="hardAlpha" operator="out"/>
<feColorMatrix type="matrix" values="0 0 0 0 0 0 0 0 0 0 0 0 0 0 0 0 0 0 0.25 0"/>
<feBlend mode="normal" in2="BackgroundImageFix" result="effect1_dropShadow_105_4"/>
<feBlend mode="normal" in="SourceGraphic" in2="effect1_dropShadow_105_4" result="shape"/>
<feColorMatrix in="SourceAlpha" type="matrix" values="0 0 0 0 0 0 0 0 0 0 0 0 0 0 0 0 0 0 127 0" result="hardAlpha"/>
<feOffset dy="4"/>
<feGaussianBlur stdDeviation="2"/>
<feComposite in2="hardAlpha" operator="arithmetic" k2="-1" k3="1"/>
<feColorMatrix type="matrix" values="0 0 0 0 0 0 0 0 0 0 0 0 0 0 0 0 0 0 0.25 0"/>
<feBlend mode="normal" in2="shape" result="effect2_innerShadow_105_4"/>
</filter>
</defs>
</svg>
