<?xml version="1.0" standalone="no"?>
<!DOCTYPE svg PUBLIC "-//W3C//DTD SVG 20010904//EN"
 "http://www.w3.org/TR/2001/REC-SVG-20010904/DTD/svg10.dtd">
<svg version="1.0" xmlns="http://www.w3.org/2000/svg"
 width="310.000000pt" height="310.000000pt" viewBox="0 0 310.000000 310.000000"
 preserveAspectRatio="xMidYMid meet">
<metadata>
Created by potrace 1.14, written by Peter Selinger 2001-2017
</metadata>
<g transform="translate(0.000000,310.000000) scale(0.100000,-0.100000)"
fill="#000000" stroke="none">
<path d="M425 2138 c-15 -41 -140 -402 -155 -448 -19 -60 -192 -560 -234 -679
-14 -41 -26 -77 -26 -79 0 -29 251 86 385 176 l70 47 103 300 c57 165 113 326
124 358 l21 57 231 -2 231 -3 -2 -26 c-1 -14 -12 -53 -25 -85 l-23 -59 -196
-3 -195 -2 -23 -73 c-13 -39 -25 -76 -27 -82 -2 -5 37 -66 86 -135 50 -69 109
-151 132 -182 l41 -58 214 0 c169 0 213 3 207 13 -5 6 -32 46 -61 87 -29 41
-58 83 -65 94 -7 10 -21 29 -30 41 -10 13 -18 25 -18 28 0 2 26 7 58 10 98 10
165 55 207 137 19 40 71 180 133 364 28 85 17 153 -32 199 -18 16 -59 17 -573
17 -434 0 -555 -3 -558 -12z"/>
<path d="M1720 2128 c0 -13 17 -57 39 -99 l38 -76 -22 -62 c-12 -33 -21 -61
-19 -61 2 0 -4 -17 -12 -37 -43 -102 -164 -472 -164 -501 0 -38 20 -91 44
-115 16 -16 59 -17 512 -17 549 0 518 -4 597 69 60 55 79 92 141 271 31 91 86
251 122 355 36 105 73 214 83 243 l18 52 -190 -2 -190 -3 -48 -140 c-27 -77
-78 -228 -115 -336 -37 -108 -70 -203 -75 -210 -6 -11 -50 -15 -176 -19 -236
-7 -293 -3 -293 18 0 9 52 167 115 351 63 184 115 336 115 338 0 1 -117 3
-260 3 l-260 0 0 -22z"/>
</g>
</svg>
