<?xml version="1.0" standalone="no"?>
<!DOCTYPE svg PUBLIC "-//W3C//DTD SVG 20010904//EN"
 "http://www.w3.org/TR/2001/REC-SVG-20010904/DTD/svg10.dtd">
<svg version="1.0" xmlns="http://www.w3.org/2000/svg"
 width="117.000000pt" height="117.000000pt" viewBox="0 0 117.000000 117.000000"
 preserveAspectRatio="xMidYMid meet">
<metadata>
Created by potrace 1.14, written by Peter Selinger 2001-2017
</metadata>
<g transform="translate(0.000000,117.000000) scale(0.100000,-0.100000)"
fill="#000000" stroke="none">
<path d="M296 997 c-19 -52 -76 -217 -156 -452 -34 -99 -79 -231 -101 -294
l-39 -113 26 6 c44 11 174 76 246 122 51 33 69 50 76 76 13 43 164 482 168
487 5 6 335 3 341 -3 6 -6 -24 -94 -39 -113 -6 -8 -53 -11 -144 -11 -75 0
-137 -2 -138 -4 -2 -1 -12 -28 -24 -58 l-20 -56 97 -134 96 -135 153 -1 c83
-1 152 2 152 7 0 5 -28 47 -61 94 -34 47 -59 88 -57 91 3 3 21 6 40 8 54 5
107 36 134 75 30 46 124 312 124 352 0 36 -23 84 -45 93 -9 3 -195 5 -415 5
l-399 0 -15 -42z"/>
</g>
</svg>
